0
SECTION
2
HEADER
9
$INSUNITS
70
4
9
$ACADVER
1
AC1014
9
$HANDSEED
5
FFFF
0
ENDSEC
0
SECTION
2
TABLES
0
TABLE
2
VPORT
5
8
100
AcDbSymbolTable
0
ENDTAB
0
TABLE
2
LTYPE
5
5
100
AcDbSymbolTable
0
LTYPE
5
14
100
AcDbSymbolTableRecord
100
AcDbLinetypeTableRecord
2
BYBLOCK
70
0
0
LTYPE
5
15
100
AcDbSymbolTableRecord
100
AcDbLinetypeTableRecord
2
BYLAYER
70
0
0
LTYPE
5
16
100
AcDbSymbolTableRecord
100
AcDbLinetypeTableRecord
2
DASHED
70
0
3
Dashed __ __ __ __ __ __ __ __ __ __ __ __ __ _
72
65
73
2
40
0.75
49
0.5
74
0
49
-0.25
74
0
0
ENDTAB
0
TABLE
2
LAYER
5
2
100
AcDbSymbolTable
70
2
0
LAYER
5
50
100
AcDbSymbolTableRecord
100
AcDbLayerTableRecord
2
0
70
0
62
7
6
CONTINUOUS
0
ENDTAB
0
TABLE
2
STYLE
5
3
100
AcDbSymbolTable
70
1
0
STYLE
5
11
100
AcDbSymbolTableRecord
100
AcDbTextStyleTableRecord
2
STANDARD
70
0
0
ENDTAB
0
TABLE
2
VIEW
5
6
100
AcDbSymbolTable
70
0
0
ENDTAB
0
TABLE
2
UCS
5
7
100
AcDbSymbolTable
70
0
0
ENDTAB
0
TABLE
2
APPID
5
9
100
AcDbSymbolTable
70
2
0
APPID
5
12
100
AcDbSymbolTableRecord
100
AcDbRegAppTableRecord
2
ACAD
70
0
0
ENDTAB
0
TABLE
2
DIMSTYLE
5
A
100
AcDbSymbolTable
70
1
0
ENDTAB
0
TABLE
2
BLOCK_RECORD
5
1
100
AcDbSymbolTable
70
1
0
BLOCK_RECORD
5
1F
100
AcDbSymbolTableRecord
100
AcDbBlockTableRecord
2
*MODEL_SPACE
0
BLOCK_RECORD
5
1B
100
AcDbSymbolTableRecord
100
AcDbBlockTableRecord
2
*PAPER_SPACE
0
ENDTAB
0
ENDSEC
0
SECTION
2
BLOCKS
0
BLOCK
5
20
100
AcDbEntity
100
AcDbBlockBegin
2
*MODEL_SPACE
0
ENDBLK
5
21
100
AcDbEntity
100
AcDbBlockEnd
0
BLOCK
5
1C
100
AcDbEntity
100
AcDbBlockBegin
2
*PAPER_SPACE
0
ENDBLK
5
1D
100
AcDbEntity
100
AcDbBlockEnd
0
ENDSEC
0
SECTION
2
ENTITIES
0
CIRCLE
5
100
100
AcDbEntity
8
0
100
AcDbCircle
10
10.000000149011612
20
120.00000178813934
30
0
40
1.550004435703203
210
0
220
0
230
1
0
CIRCLE
5
101
100
AcDbEntity
8
0
100
AcDbCircle
10
10.499999765306711
20
75.999998301267624
30
0
40
1.5499947650825476
210
0
220
0
230
1
0
CIRCLE
5
102
100
AcDbEntity
8
0
100
AcDbCircle
10
84.499998111277819
20
75.999998301267624
30
0
40
1.5499999653548002
210
0
220
0
230
1
0
CIRCLE
5
103
100
AcDbEntity
8
0
100
AcDbCircle
10
85.000004037283361
20
120.01000570016913
30
0
40
1.5500000736210495
210
0
220
0
230
1
0
LWPOLYLINE
5
104
100
AcDbEntity
8
0
100
AcDbPolyline
90
13
70
1
43
0.0
10
90.000001341104507
20
33.000000402331352
10
90.000001341104507
20
34.000000506639481
10
90.000001341104507
20
119.00000186264515
10
90.00000039444248
20
155.00000039444251
42
0.41421355467112708
10
75.000000394442495
20
170
10
20.000000074505806
20
170
42
0.41421356237309626
10
5.000000074505806
20
155
10
5.000000074505806
20
119.00000186264515
10
5.000000074505806
20
33.000000402331352
10
5.000000074505806
20
21
42
0.41421356237309503
10
11.000000074505806
20
15
10
84.000000447034822
20
15
42
0.41421354055085208
10
90.000000447034807
20
20.999999552965175
0
LWPOLYLINE
5
105
100
AcDbEntity
8
0
100
AcDbPolyline
90
6
70
1
43
0.0
10
55
20
70
10
83.000001236796379
20
70.000001043081284
10
83.000001236796379
20
23.000000342726707
10
12.000000178813934
20
23.000000342726707
10
12.000000178813934
20
70.000001043081284
10
15
20
70
0
LWPOLYLINE
5
106
100
AcDbEntity
8
0
100
AcDbPolyline
90
4
70
1
43
0.0
10
81.000001192092896
20
121.00000178813934
10
14.000001236796376
20
121.00000178813934
10
14.000001236796376
20
74.000001087784767
10
14.000001236796376
20
121.00000178813934
0
LINE
5
107
100
AcDbEntity
8
0
100
AcDbLine
10
83.000001236796379
20
75.609473949727558
30
0
11
83.000001236796379
21
76.390522652807689
31
0
0
LINE
5
108
100
AcDbEntity
8
0
100
AcDbLine
10
81.000001192092896
20
121.00000178813934
30
0
11
81.000001192092896
21
74.000001087784767
31
0
0
LINE
5
109
100
AcDbEntity
8
0
100
AcDbLine
10
81.000001192092896
20
74.000001087784767
30
0
11
14.000001236796376
21
74.000001087784767
31
0
0
LWPOLYLINE
5
110
100
AcDbEntity
8
0
100
AcDbPolyline
90
4
70
1
43
0.0
10
24.000000357627869
20
125.00000186264515
10
71.000001057982445
20
125.00000186264515
10
71.000001057982445
20
162.00000241398811
10
24.000000357627869
20
162.00000241398811
0
LWPOLYLINE
5
111
100
AcDbEntity
8
0
100
AcDbPolyline
90
4
70
1
43
0.0
10
18.000000298023231
20
162.00000241398811
10
13.000000223517425
20
162.00000241398811
10
13.000000223517425
20
125.00000186264515
10
18.000000298023231
20
125.00000186264515
0
LWPOLYLINE
5
112
100
AcDbEntity
8
0
100
AcDbPolyline
90
4
70
1
43
0.0
10
77.00000111758709
20
162.00000241398811
10
82.000001192092896
20
162.00000241398811
10
82.000001192092896
20
125.00000186264515
10
77.00000111758709
20
125.00000186264515
0
LWPOLYLINE
5
113
100
AcDbEntity
8
0
100
AcDbPolyline
90
4
70
1
43
0.0
10
84.000001236796379
20
116.00000171363354
10
87.000001281499863
20
116.00000171363354
10
87.000001281499863
20
81.000001192092896
10
84.000001236796379
20
81.000001192092896
0
LWPOLYLINE
5
114
100
AcDbEntity
8
0
100
AcDbPolyline
90
4
70
1
43
0.0
10
11.000000178813938
20
116.00000171363354
10
8.0000001341104543
20
116.00000171363354
10
8.0000001341104543
20
81.000001192092896
10
11.000000178813938
20
81.000001192092896
0
LWPOLYLINE
5
115
100
AcDbEntity
8
0
100
AcDbPolyline
90
4
70
1
43
0.0
10
8.0000001341104543
20
116.00000171363354
10
8.0000001341104543
20
81.000001192092896
10
11.000000178813938
20
81.000001192092896
10
11.000000178813938
20
116.00000171363354
0
LWPOLYLINE
5
116
100
AcDbEntity
8
0
100
AcDbPolyline
90
4
70
1
43
0.0
10
84.000001236796379
20
116.00000171363354
10
87.000001281499863
20
116.00000171363354
10
87.000001281499863
20
81.000001192092896
10
84.000001236796379
20
81.000001192092896
0
LWPOLYLINE
5
117
100
AcDbEntity
8
0
100
AcDbPolyline
90
4
70
1
43
0.0
10
10.000000178813941
20
30.000001192092892
10
10.000000178813941
20
65.000001713633537
10
7.0000001341104579
20
65.000001713633537
10
7.0000001341104579
20
30.000001192092892
0
LWPOLYLINE
5
118
100
AcDbEntity
8
0
100
AcDbPolyline
90
4
70
1
43
0.0
10
10.000000178813941
20
30.000001192092892
10
10.000000178813941
20
65.000001713633537
10
7.0000001341104579
20
65.000001713633537
10
7.0000001341104579
20
30.000001192092892
0
LWPOLYLINE
5
119
100
AcDbEntity
8
0
100
AcDbPolyline
90
4
70
1
43
0.0
10
88.000000178813934
20
30.000001192092888
10
88.000000178813934
20
65.000001713633523
10
85.000000134110451
20
65.000001713633523
10
85.000000134110451
20
30.000001192092888
0
LWPOLYLINE
5
120
100
AcDbEntity
8
0
100
AcDbPolyline
90
4
70
1
43
0.0
10
88.000000178813934
20
30.000001192092888
10
88.000000178813934
20
65.000001713633523
10
85.000000134110451
20
65.000001713633523
10
85.000000134110451
20
30.000001192092888
0
ENDSEC
0
SECTION
2
OBJECTS
0
DICTIONARY
5
C
100
AcDbDictionary
3
ACAD_GROUP
350
D
3
ACAD_MLINESTYLE
350
17
0
DICTIONARY
5
D
100
AcDbDictionary
0
DICTIONARY
5
1A
330
C
100
AcDbDictionary
0
DICTIONARY
5
17
100
AcDbDictionary
0
ENDSEC
0
EOF
