0
SECTION
2
HEADER
9
$INSUNITS
70
4
9
$ACADVER
1
AC1014
9
$HANDSEED
5
FFFF
0
ENDSEC
0
SECTION
2
TABLES
0
TABLE
2
VPORT
5
8
100
AcDbSymbolTable
0
ENDTAB
0
TABLE
2
LTYPE
5
5
100
AcDbSymbolTable
0
LTYPE
5
14
100
AcDbSymbolTableRecord
100
AcDbLinetypeTableRecord
2
BYBLOCK
70
0
0
LTYPE
5
15
100
AcDbSymbolTableRecord
100
AcDbLinetypeTableRecord
2
BYLAYER
70
0
0
LTYPE
5
16
100
AcDbSymbolTableRecord
100
AcDbLinetypeTableRecord
2
DASHED
70
0
3
Dashed __ __ __ __ __ __ __ __ __ __ __ __ __ _
72
65
73
2
40
0.75
49
0.5
74
0
49
-0.25
74
0
0
ENDTAB
0
TABLE
2
LAYER
5
2
100
AcDbSymbolTable
70
2
0
LAYER
5
50
100
AcDbSymbolTableRecord
100
AcDbLayerTableRecord
2
0
70
0
62
7
6
CONTINUOUS
0
ENDTAB
0
TABLE
2
STYLE
5
3
100
AcDbSymbolTable
70
1
0
STYLE
5
11
100
AcDbSymbolTableRecord
100
AcDbTextStyleTableRecord
2
STANDARD
70
0
0
ENDTAB
0
TABLE
2
VIEW
5
6
100
AcDbSymbolTable
70
0
0
ENDTAB
0
TABLE
2
UCS
5
7
100
AcDbSymbolTable
70
0
0
ENDTAB
0
TABLE
2
APPID
5
9
100
AcDbSymbolTable
70
2
0
APPID
5
12
100
AcDbSymbolTableRecord
100
AcDbRegAppTableRecord
2
ACAD
70
0
0
ENDTAB
0
TABLE
2
DIMSTYLE
5
A
100
AcDbSymbolTable
70
1
0
ENDTAB
0
TABLE
2
BLOCK_RECORD
5
1
100
AcDbSymbolTable
70
1
0
BLOCK_RECORD
5
1F
100
AcDbSymbolTableRecord
100
AcDbBlockTableRecord
2
*MODEL_SPACE
0
BLOCK_RECORD
5
1B
100
AcDbSymbolTableRecord
100
AcDbBlockTableRecord
2
*PAPER_SPACE
0
ENDTAB
0
ENDSEC
0
SECTION
2
BLOCKS
0
BLOCK
5
20
100
AcDbEntity
100
AcDbBlockBegin
2
*MODEL_SPACE
0
ENDBLK
5
21
100
AcDbEntity
100
AcDbBlockEnd
0
BLOCK
5
1C
100
AcDbEntity
100
AcDbBlockBegin
2
*PAPER_SPACE
0
ENDBLK
5
1D
100
AcDbEntity
100
AcDbBlockEnd
0
ENDSEC
0
SECTION
2
ENTITIES
0
POINT
5
100
100
AcDbEntity
8
0
100
AcDbPoint
10
0
20
172.5
30
0
0
LINE
5
101
100
AcDbEntity
8
0
100
AcDbLine
10
90.000009518436343
20
90.009756242773719
30
0
11
95
21
85.009765761210176
31
0
0
ARC
5
102
100
AcDbEntity
8
0
100
AcDbCircle
10
-92.000000000000014
20
2.9999999999999916
30
0
40
2.9999999999999893
210
0
220
0
230
-1
100
AcDbArc
50
180
51
270.00000000000023
0
LWPOLYLINE
5
103
100
AcDbEntity
8
0
100
AcDbPolyline
90
3
70
1
43
0.0
10
-2.4832283068313825e-31
20
114.99999999999979
10
0
20
130
10
-2.4832283068313825e-31
20
135.00000201165676
0
LINE
5
104
100
AcDbEntity
8
0
100
AcDbLine
10
95
20
85.009765761210176
30
0
11
95
21
3.0000000000000004
31
0
0
LINE
5
105
100
AcDbEntity
8
0
100
AcDbLine
10
3.2196467714129533e-14
20
84.999999999999872
30
0
11
5.000000000000032
21
90
31
0
0
LINE
5
106
100
AcDbEntity
8
0
100
AcDbLine
10
92
20
2.2204460492503131e-15
30
0
11
3.0000000000000071
21
0
31
0
0
LINE
5
107
100
AcDbEntity
8
0
100
AcDbLine
10
95
20
130
30
0
11
95
21
115.00974672433742
31
0
0
LINE
5
108
100
AcDbEntity
8
0
100
AcDbLine
10
5.00000000000004
20
110
30
0
11
-2.4832283068313825e-31
21
114.99999999999979
31
0
0
LINE
5
109
100
AcDbEntity
8
0
100
AcDbLine
10
5.000000000000032
20
90
30
0
11
5.00000000000004
21
110
31
0
0
LINE
5
110
100
AcDbEntity
8
0
100
AcDbLine
10
95
20
115.00974672433742
30
0
11
90.000009518436372
21
110.00975624277372
31
0
0
ARC
5
111
100
AcDbEntity
8
0
100
AcDbCircle
10
-3.0000000000000018
20
3.0000000000000018
30
0
40
3.0000000000000018
210
0
220
-0
230
-1
100
AcDbArc
50
-90.000000000000099
51
0
0
LINE
5
112
100
AcDbEntity
8
0
100
AcDbLine
10
0
20
3.0000000000000071
30
0
11
3.2196467714129533e-14
21
84.999999999999872
31
0
0
LINE
5
113
100
AcDbEntity
8
0
100
AcDbLine
10
90.000009518436372
20
110.00975624277372
30
0
11
90.000009518436343
21
90.009756242773719
31
0
0
LWPOLYLINE
5
114
100
AcDbEntity
8
0
100
AcDbPolyline
90
8
70
1
43
0.0
10
14.500000000000375
20
81.500000014901147
42
-0.41421356237306056
10
13.499999985099347
20
80.500000000000085
10
9.5000000000004388
20
80.500000000000085
42
-0.41421356237309537
10
8.5000000000003713
20
81.500000000000071
10
8.5000000000003553
20
89.499999985098938
42
-0.41421356237318607
10
9.5000000149017438
20
90.500000000000043
10
13.499999985098786
20
90.500000000000043
42
-0.41421356237311258
10
14.500000000000393
20
89.49999998509827
0
LWPOLYLINE
5
115
100
AcDbEntity
8
0
100
AcDbPolyline
90
8
70
1
43
0.0
10
81.500000014901971
20
105.50000000000006
10
85.49999998509945
20
105.50000000000006
42
-0.41421356237310025
10
86.500000000000497
20
104.49999998509902
10
86.500000000000483
20
96.50000001490092
42
-0.41421356237305862
10
85.499999985099734
20
95.500000000000043
10
81.500000014901701
20
95.500000000000043
42
-0.4142135623730846
10
80.500000000000384
20
96.500000014901417
10
80.500000000000384
20
104.49999998509884
42
-0.41421356237318346
0
LWPOLYLINE
5
116
100
AcDbEntity
8
0
100
AcDbPolyline
90
8
70
1
43
0.0
10
9.5000000149015875
20
105.50000000000013
10
13.499999985098974
20
105.50000000000013
42
-0.41421356237308593
10
14.500000000000419
20
104.4999999850988
10
14.500000000000419
20
96.500000014901133
42
-0.41421356237310347
10
13.499999985099361
20
95.500000000000128
10
9.500000014901536
20
95.500000000000085
42
-0.41421356237309664
10
8.5000000000002718
20
96.500000014901289
10
8.5000000000002611
20
104.49999998509884
42
-0.41421356237313045
0
CIRCLE
5
117
100
AcDbEntity
8
0
100
AcDbCircle
10
47.5
20
5
30
0
40
2.0000000000000018
210
0
220
0
230
1
0
LWPOLYLINE
5
118
100
AcDbEntity
8
0
100
AcDbPolyline
90
6
70
1
43
0.0
10
18.052885682970047
20
16.749999999999947
10
20.650961894323313
20
12.250000000000036
42
0.57735026918962729
10
23.249038105676661
20
12.250000000000028
10
25.84711431703014
20
16.750000000000366
42
0.57735026918961918
10
24.548076211353678
20
18.999999999999996
10
19.351923788646765
20
18.999999999999996
42
0.5773502691896335
0
LWPOLYLINE
5
119
100
AcDbEntity
8
0
100
AcDbPolyline
90
8
70
1
43
0.0
10
47.500000000000078
20
80.000000000004135
42
0.41421356237317569
10
45.500000000004881
20
81.999999999999957
10
19.499999999991829
20
81.999999999999957
42
0.41421356237308721
10
17.499999999999794
20
80.000000000007873
10
17.499999999999801
20
76.000000000000369
42
0.41421356237185059
10
19.500000000002846
20
73.999999999999929
10
45.49999999999747
20
73.999999999999929
42
0.41421356237320817
10
47.500000000000078
20
76.000000000001478
0
CIRCLE
5
120
100
AcDbEntity
8
0
100
AcDbCircle
10
79.30000000000004
20
44.974999999999987
30
0
40
1.5499999999999936
210
0
220
0
230
1
0
CIRCLE
5
121
100
AcDbEntity
8
0
100
AcDbCircle
10
79.30000000000004
20
17.074999999999992
30
0
40
1.5499999999999936
210
0
220
0
230
1
0
CIRCLE
5
122
100
AcDbEntity
8
0
100
AcDbCircle
10
28.5
20
60.174999999999997
30
0
40
1.5500000000000025
210
0
220
0
230
1
0
CIRCLE
5
123
100
AcDbEntity
8
0
100
AcDbCircle
10
17
20
53.174999999999997
30
0
40
2
210
0
220
0
230
1
0
CIRCLE
5
124
100
AcDbEntity
8
0
100
AcDbCircle
10
26.899999999999999
20
11.674999999999995
30
0
40
1.549999999999998
210
0
220
0
230
1
0
CIRCLE
5
125
100
AcDbEntity
8
0
100
AcDbCircle
10
10.500000000000329
20
110
30
0
40
1.5500000000000069
210
0
220
0
230
1
0
CIRCLE
5
126
100
AcDbEntity
8
0
100
AcDbCircle
10
84.500000000000369
20
110.00000000000014
30
0
40
1.5500000000000114
210
0
220
0
230
1
0
CIRCLE
5
127
100
AcDbEntity
8
0
100
AcDbCircle
10
84.500000000000298
20
75.999999999999872
30
0
40
1.5500000000000114
210
0
220
0
230
1
0
CIRCLE
5
128
100
AcDbEntity
8
0
100
AcDbCircle
10
10.500000000000263
20
76
30
0
40
1.5500000000000069
210
0
220
0
230
1
0
CIRCLE
5
129
100
AcDbEntity
8
0
100
AcDbCircle
10
17
20
41.174999999999997
30
0
40
1.9999999999999973
210
0
220
0
230
1
0
CIRCLE
5
130
100
AcDbEntity
8
0
100
AcDbCircle
10
47.500000000000064
20
66.299999999999983
30
0
40
1.2999999999999987
210
0
220
0
230
1
0
CIRCLE
5
131
100
AcDbEntity
8
0
100
AcDbCircle
10
47.500000000000206
20
123.70000000000002
30
0
40
1.2999999999999987
210
0
220
0
230
1
0
CIRCLE
5
132
100
AcDbEntity
8
0
100
AcDbCircle
10
10.000000000000037
20
120
30
0
40
1.5500000000000005
210
0
220
0
230
1
0
CIRCLE
5
133
100
AcDbEntity
8
0
100
AcDbCircle
10
85.000009518436372
20
120.0097562427737
30
0
40
1.5499999999999936
210
0
220
0
230
1
0
LINE
5
134
100
AcDbEntity
8
0
100
AcDbLine
10
94
20
172.5
30
0
11
90.988504153603571
21
172.5
31
0
0
LINE
5
135
100
AcDbEntity
8
0
100
AcDbLine
10
0.99999999999999989
20
172.5
30
0
11
4.0114958463964356
21
172.5
31
0
0
ARC
5
136
100
AcDbEntity
8
0
100
AcDbCircle
10
47.5
20
172.5
30
0
40
42.499999925494208
210
0
220
0
230
1
100
AcDbArc
50
181.31726039866308
51
358.68273960133689
0
LWPOLYLINE
5
137
100
AcDbEntity
8
0
100
AcDbPolyline
90
4
70
1
43
0.0
10
5.2138320646341274
20
157.10909355034491
10
2.8646005126693375
20
156.25404319203074
42
0.087488663525923882
10
11.112888951848557
20
141.96758853988939
10
13.028000059645994
20
143.57455756410573
42
-0.087488663525924021
0
LWPOLYLINE
5
138
100
AcDbEntity
8
0
100
AcDbPolyline
90
5
70
1
43
0.0
10
18.574557564105724
20
138.02800005964596
10
16.967588539889391
20
136.11288895184856
42
0.087488663525923799
10
31.254043192030743
20
127.86460051266937
10
31.361505568768997
20
128.15985096619866
10
32.109093550344916
20
130.21383206463412
42
-0.087488663525924021
0
LWPOLYLINE
5
139
100
AcDbEntity
8
0
100
AcDbPolyline
90
4
70
1
43
0.0
10
89.786167935365896
20
157.10909355034488
10
92.135399487330645
20
156.25404319203074
42
-0.087488663525923896
10
83.887111048151453
20
141.96758853988939
10
81.97199994035401
20
143.57455756410573
42
0.087488663525923882
0
LWPOLYLINE
5
140
100
AcDbEntity
8
0
100
AcDbPolyline
90
4
70
1
43
0.0
10
76.425442435894297
20
138.02800005964599
10
78.032411460110637
20
136.11288895184856
42
-0.087488663525924021
10
63.745956807969279
20
127.86460051266936
10
62.890906449655112
20
130.21383206463412
42
0.087488663525924062
0
ARC
5
141
100
AcDbEntity
8
0
100
AcDbCircle
10
93.999999999999986
20
171.5
30
0
40
1.0000000000000142
210
0
220
0
230
1
100
AcDbArc
50
0
51
89.99999999999919
0
ARC
5
142
100
AcDbEntity
8
0
100
AcDbCircle
10
90.9885041536036
20
171.5
30
0
40
1.0000000000000142
210
0
220
0
230
1
100
AcDbArc
50
90.000000000001634
51
178.68273960133774
0
ARC
5
143
100
AcDbEntity
8
0
100
AcDbCircle
10
4.011495846396401
20
171.5
30
0
40
1.0000000000000144
210
0
220
-0
230
1
100
AcDbArc
50
1.3172603986622646
51
89.99999999999801
0
ARC
5
144
100
AcDbEntity
8
0
100
AcDbCircle
10
1.0000000000000173
20
171.5
30
0
40
1.0000000000000142
210
0
220
0
230
1
100
AcDbArc
50
90.000000000000995
51
180
0
LINE
5
145
100
AcDbEntity
8
0
100
AcDbLine
10
3.0000000447034836
20
139.99999999999977
30
0
11
3.0000000447034836
21
138.00000205636024
31
0
0
LINE
5
146
100
AcDbEntity
8
0
100
AcDbLine
10
3.0000000447034836
20
139.99999999999977
30
0
11
3.0000000447034836
21
142.00000211596489
31
0
0
LINE
5
147
100
AcDbEntity
8
0
100
AcDbLine
10
-2.4832283068313825e-31
20
145.00000216066837
30
0
11
0
21
171.5
31
0
0
LINE
5
148
100
AcDbEntity
8
0
100
AcDbLine
10
-2.4832283068313825e-31
20
135.00000201165676
30
0
11
3.0000000447034836
21
138.00000205636024
31
0
0
LINE
5
149
100
AcDbEntity
8
0
100
AcDbLine
10
-2.4832283068313825e-31
20
145.00000216066837
30
0
11
3.0000000447034836
21
142.00000211596489
31
0
0
LINE
5
150
100
AcDbEntity
8
0
100
AcDbLine
10
92.00000137090683
20
140.00000208616257
30
0
11
92.00000137090683
21
138.00000205636024
31
0
0
LINE
5
151
100
AcDbEntity
8
0
100
AcDbLine
10
92.00000137090683
20
140.00000208616257
30
0
11
92.00000137090683
21
142.00000211596489
31
0
0
LINE
5
152
100
AcDbEntity
8
0
100
AcDbLine
10
95
20
130
30
0
11
95.000001415610313
21
135.00000201165676
31
0
0
LINE
5
153
100
AcDbEntity
8
0
100
AcDbLine
10
95.000001415610313
20
145.00000216066837
30
0
11
95
21
171.5
31
0
0
LINE
5
154
100
AcDbEntity
8
0
100
AcDbLine
10
95.000001415610313
20
135.00000201165676
30
0
11
92.00000137090683
21
138.00000205636024
31
0
0
LINE
5
155
100
AcDbEntity
8
0
100
AcDbLine
10
95.000001415610313
20
145.00000216066837
30
0
11
92.00000137090683
21
142.00000211596489
31
0
0
ENDSEC
0
SECTION
2
OBJECTS
0
DICTIONARY
5
C
100
AcDbDictionary
3
ACAD_GROUP
350
D
3
ACAD_MLINESTYLE
350
17
0
DICTIONARY
5
D
100
AcDbDictionary
0
DICTIONARY
5
1A
330
C
100
AcDbDictionary
0
DICTIONARY
5
17
100
AcDbDictionary
0
ENDSEC
0
EOF
